<svg width="520" height="800" viewBox="0 0 520 800" fill="none" xmlns="http://www.w3.org/2000/svg">
  <defs>
    <linearGradient id="cdaBg" x1="62" y1="46" x2="446" y2="740" gradientUnits="userSpaceOnUse">
      <stop stop-color="#F4F9FF"/>
      <stop offset="1" stop-color="#D9E8FF"/>
    </linearGradient>
    <linearGradient id="cdaDesk" x1="100" y1="544" x2="420" y2="630" gradientUnits="userSpaceOnUse">
      <stop stop-color="#4E5669"/>
      <stop offset="1" stop-color="#232936"/>
    </linearGradient>
    <linearGradient id="cdaCard" x1="122" y1="224" x2="398" y2="468" gradientUnits="userSpaceOnUse">
      <stop stop-color="#1C67D9"/>
      <stop offset="1" stop-color="#0C3C93"/>
    </linearGradient>
  </defs>
  <rect width="520" height="800" rx="28" fill="url(#cdaBg)"/>
  <circle cx="98" cy="126" r="26" fill="#BBD8FF" opacity="0.7"/>
  <circle cx="420" cy="110" r="20" fill="#D6E6FF" opacity="0.85"/>
  <rect x="118" y="188" width="284" height="168" rx="24" fill="url(#cdaCard)"/>
  <rect x="146" y="214" width="228" height="116" rx="16" fill="#F7FAFF" opacity="0.96"/>
  <path d="M178 248H342" stroke="#8AA8D8" stroke-width="12" stroke-linecap="round"/>
  <path d="M178 278H312" stroke="#B1C7EC" stroke-width="12" stroke-linecap="round"/>
  <path d="M178 308H286" stroke="#D2E0F7" stroke-width="12" stroke-linecap="round"/>
  <rect x="128" y="376" width="264" height="164" rx="22" fill="#1F2630"/>
  <rect x="142" y="396" width="236" height="126" rx="16" fill="#2B3440"/>
  <g fill="#FFFFFF" opacity="0.97">
    <rect x="164" y="418" width="24" height="16" rx="4"/>
    <rect x="194" y="418" width="24" height="16" rx="4"/>
    <rect x="224" y="418" width="24" height="16" rx="4"/>
    <rect x="254" y="418" width="24" height="16" rx="4"/>
    <rect x="284" y="418" width="24" height="16" rx="4"/>
    <rect x="314" y="418" width="24" height="16" rx="4"/>
    <rect x="164" y="442" width="30" height="16" rx="4"/>
    <rect x="200" y="442" width="24" height="16" rx="4"/>
    <rect x="230" y="442" width="24" height="16" rx="4"/>
    <rect x="260" y="442" width="24" height="16" rx="4"/>
    <rect x="290" y="442" width="24" height="16" rx="4"/>
    <rect x="320" y="442" width="18" height="16" rx="4"/>
    <rect x="164" y="466" width="56" height="16" rx="4"/>
    <rect x="226" y="466" width="68" height="16" rx="4"/>
    <rect x="300" y="466" width="38" height="16" rx="4"/>
  </g>
  <g>
    <path d="M198 590C214 570 242 558 270 558C298 558 326 570 342 590" stroke="#5B6F8A" stroke-width="18" stroke-linecap="round"/>
    <path d="M172 618C188 594 216 580 246 580H294C324 580 352 594 368 618" stroke="#D7AE8A" stroke-width="26" stroke-linecap="round"/>
    <path d="M212 618L224 670" stroke="#D7AE8A" stroke-width="24" stroke-linecap="round"/>
    <path d="M308 618L296 670" stroke="#D7AE8A" stroke-width="24" stroke-linecap="round"/>
  </g>
  <path d="M176 690H344" stroke="#24303D" stroke-width="18" stroke-linecap="round" opacity="0.18"/>
</svg>