<svg version="1.2" xmlns="http://www.w3.org/2000/svg" viewBox="0 0 381 216" width="381" height="216">
	<style>
		.s0 { fill: #000000 } 
	</style>
	<g id="Layer 1">
		<g id="&lt;Group&gt;">
			<g id="&lt;Group&gt;">
				<g id="&lt;Group&gt;">
					<path id="&lt;Compound Path&gt;" class="s0" d="m36.33 180.34l7.28 6.17c-4.53 5.38-11.35 8.79-19.09 8.79-13.45 0-24.41-10.56-24.41-23.62 0-13.05 10.96-23.68 24.41-23.68 7.74 0 14.56 3.48 19.09 8.86l-7.28 6.17c-2.63-3.74-6.96-6.11-11.81-6.11-8.07 0-14.7 5.91-14.7 14.76 0 8.73 6.63 14.77 14.7 14.77 4.85 0 9.18-2.37 11.81-6.11z"/>
					<path id="&lt;Compound Path&gt;" fill-rule="evenodd" class="s0" d="m93.2 171.68c0 13.06-10.96 23.62-24.6 23.62-13.58 0-24.61-10.56-24.61-23.62 0-13.05 11.03-23.61 24.61-23.61 13.64 0 24.6 10.56 24.6 23.61zm-9.58 0c0-8.13-6.76-14.82-15.02-14.82-8.27 0-14.96 6.69-14.96 14.82 0 8.21 6.69 14.83 14.96 14.83 8.26 0 15.02-6.62 15.02-14.83z"/>
					<path id="&lt;Compound Path&gt;" class="s0" d="m145.36 148.53v46.25h-9.45v-25.59l-14.3 20.08-14.37-20.08v25.59h-9.38v-46.25h4.59l19.16 26.5 19.15-26.5z"/>
					<path id="&lt;Compound Path&gt;" class="s0" d="m232.67 176.21c0 10.63-7.09 19.09-20.54 19.09-13.38 0-20.4-8.39-20.4-19.09v-27.68h9.19v25.25c0 8.73 3.87 12.86 11.21 12.86 7.48 0 11.35-4.2 11.35-12.86v-25.25h9.19z"/>
					<path id="&lt;Compound Path&gt;" class="s0" d="m287.18 194.78h-3.87l-13.12-30.38-13.05 30.38h-3.88l-18.23-46.25h10.17l10.43 28.08 12.66-28.08h3.87l12.59 28.08 10.44-28.08h10.17z"/>
					<path id="&lt;Compound Path&gt;" class="s0" d="m378.5 148.53l-17.78 30.57v15.68h-9.45v-15.68l-17.71-30.57h10.69l11.81 20.4 11.68-20.4z"/>
					<path id="&lt;Path&gt;" class="s0" d="m170.68 148.53h-19.03v46.25h9.38v-11.88h0.02v-7.8h-0.02v-18.44h8.14c7.28 0 9.77 4.46 9.77 9.25 0 5.45-3.54 9.19-11.02 9.19h-0.72v7.8h1.64c11.74 0 19.94-5.05 19.94-17.71 0-8.66-4.59-16.66-18.1-16.66z"/>
					<path id="&lt;Path&gt;" class="s0" d="m322.01 148.53h-4.65l-22.05 46.25h9.91l4.13-9.38 3.35-7.81 6.95-15.29 7.02 15.29 3.35 7.81 4.2 9.38h9.9z"/>
				</g>
				<path id="&lt;Path&gt;" class="s0" d="m380.36 189.31c0 3.65-2.96 6.61-6.61 6.61-3.64 0-6.6-2.96-6.6-6.61 0-3.65 2.96-6.6 6.6-6.6 3.65 0 6.61 2.95 6.61 6.6z"/>
			</g>
			<g id="&lt;Group&gt;">
				<path id="&lt;Compound Path&gt;" class="s0" d="m38.7 206.48v3.96h4.18v0.38h-4.18v3.04h-0.41v-7.77h5.2v0.39z"/>
				<path id="&lt;Compound Path&gt;" fill-rule="evenodd" class="s0" d="m60.25 209.98c0 2.16-1.82 3.93-4.08 3.93-2.26 0-4.09-1.77-4.09-3.93 0-2.16 1.83-3.92 4.09-3.92 2.26 0 4.08 1.76 4.08 3.92zm-0.42 0c0-1.94-1.63-3.53-3.66-3.53-2.02 0-3.67 1.59-3.67 3.53 0 1.94 1.65 3.52 3.67 3.52 2.03 0 3.66-1.58 3.66-3.52z"/>
				<path id="&lt;Compound Path&gt;" fill-rule="evenodd" class="s0" d="m73.05 211.15q-0.33 0.03-0.69 0.03h-2.29v2.68h-0.41v-7.77h2.99c2 0 2.7 1.19 2.7 2.48 0 1.42-0.73 2.22-1.88 2.49l2.09 2.8h-0.51zm-2.99-0.34h2.28c1.53 0 2.57-0.65 2.57-2.23 0-1.1-0.59-2.1-2.29-2.1h-2.56z"/>
				<path id="&lt;Compound Path&gt;" class="s0" d="m92.28 206.09v7.77h-0.41v-6.82l-3.35 5.51-3.36-5.51v6.82h-0.41v-7.77h0.27l3.5 5.71 3.49-5.71z"/>
				<path id="&lt;Compound Path&gt;" fill-rule="evenodd" class="s0" d="m107.19 211.61h-4.44l-0.99 2.25h-0.44l3.5-7.77h0.31l3.49 7.77h-0.43zm-4.28-0.35h4.14l-2.08-4.68z"/>
				<path id="&lt;Compound Path&gt;" class="s0" d="m120.6 213.89c-2.13-0.11-3.84-1.81-3.84-3.91 0-2.16 1.83-3.93 4.07-3.93 1.28 0 2.41 0.58 3.16 1.47l-0.32 0.28c-0.66-0.81-1.69-1.35-2.84-1.35-2.01 0-3.64 1.58-3.64 3.53 0 1.95 1.63 3.52 3.64 3.52 1.15 0 2.18-0.53 2.84-1.34l0.32 0.28c-0.74 0.88-1.85 1.44-3.11 1.47l-0.28 0.59c0.37 0 0.66 0.23 0.66 0.61 0 0.36-0.28 0.8-1 0.8-0.44 0-0.66-0.1-0.69-0.1l0.07-0.24c0.13 0.04 0.39 0.08 0.57 0.08 0.51 0 0.71-0.29 0.71-0.55 0-0.32-0.4-0.42-0.81-0.42z"/>
				<path id="&lt;Compound Path&gt;" fill-rule="evenodd" class="s0" d="m138.37 211.61h-4.44l-0.99 2.25h-0.44l3.51-7.77h0.3l3.5 7.77h-0.43zm-4.29-0.35h4.15l-2.09-4.68zm0.05-5.83c0.11-0.76 0.51-1.17 1.16-1.17 0.67 0 1.24 0.52 1.82 0.52 0.35 0 0.69-0.27 0.79-0.86l0.29 0.05c-0.12 0.8-0.57 1.17-1.05 1.17-0.65 0-1.28-0.53-1.82-0.53q-0.73 0.01-0.9 0.87z"/>
				<path id="&lt;Compound Path&gt;" fill-rule="evenodd" class="s0" d="m156.11 209.98c0 2.16-1.82 3.93-4.08 3.93-2.26 0-4.09-1.77-4.09-3.93 0-2.16 1.83-3.92 4.09-3.92 2.26 0 4.08 1.76 4.08 3.92zm-0.42 0c0-1.94-1.63-3.53-3.66-3.53-2.01 0-3.67 1.59-3.67 3.53 0 1.94 1.66 3.52 3.67 3.52 2.03 0 3.66-1.58 3.66-3.52z"/>
				<path id="&lt;Compound Path&gt;" fill-rule="evenodd" class="s0" d="m179.76 206.09c2 0 2.7 1.19 2.7 2.48 0 1.86-1.24 2.61-2.98 2.61h-2.28v2.68h-0.41v-7.77zm-0.3 4.72c1.52 0 2.57-0.65 2.57-2.23 0-1.1-0.6-2.1-2.3-2.1h-2.53v4.33z"/>
				<path id="&lt;Compound Path&gt;" fill-rule="evenodd" class="s0" d="m195.11 211.15q-0.34 0.03-0.69 0.03h-2.3v2.68h-0.41v-7.77h2.99c2.01 0 2.7 1.19 2.7 2.48 0 1.42-0.73 2.22-1.87 2.49l2.08 2.8h-0.51zm-2.98-0.34h2.28c1.52 0 2.57-0.65 2.57-2.23 0-1.1-0.6-2.1-2.3-2.1h-2.55z"/>
				<path id="&lt;Compound Path&gt;" fill-rule="evenodd" class="s0" d="m214.56 209.98c0 2.16-1.81 3.93-4.07 3.93-2.26 0-4.09-1.77-4.09-3.93 0-2.16 1.83-3.92 4.09-3.92 2.26 0 4.07 1.76 4.07 3.92zm-0.41 0c0-1.94-1.64-3.53-3.66-3.53-2.02 0-3.67 1.59-3.67 3.53 0 1.94 1.65 3.52 3.67 3.52 2.02 0 3.66-1.58 3.66-3.52z"/>
				<path id="&lt;Compound Path&gt;" class="s0" d="m224.39 206.48v3.96h4.18v0.38h-4.18v3.04h-0.41v-7.77h5.2v0.39z"/>
				<path id="&lt;Compound Path&gt;" class="s0" d="m238.93 213.86h-0.41v-7.77h0.41z"/>
				<path id="&lt;Compound Path&gt;" class="s0" d="m254.06 211.87c0 1.31-1.11 2.07-2.77 2.07-1.22 0-1.72-0.09-2.95-0.71l0.16-0.34c1.17 0.57 1.65 0.66 2.79 0.66 1.41 0 2.35-0.61 2.35-1.67 0-1.05-1.09-1.39-2.38-1.71-1.54-0.38-2.87-0.79-2.87-2.12 0-1.18 1.01-2 2.64-2 0.88 0 2.03 0.23 2.7 0.59l-0.19 0.35c-0.64-0.35-1.72-0.56-2.51-0.56-1.38 0-2.22 0.67-2.22 1.61 0 1.04 1.16 1.39 2.55 1.73 1.45 0.37 2.7 0.8 2.7 2.1z"/>
				<path id="&lt;Compound Path&gt;" class="s0" d="m268.65 211.87c0 1.31-1.11 2.07-2.76 2.07-1.23 0-1.72-0.09-2.96-0.71l0.17-0.34c1.17 0.57 1.64 0.66 2.79 0.66 1.41 0 2.35-0.61 2.35-1.67 0-1.05-1.1-1.39-2.39-1.71-1.54-0.38-2.86-0.79-2.86-2.12 0-1.18 1-2 2.63-2 0.88 0 2.03 0.23 2.7 0.59l-0.18 0.35c-0.64-0.35-1.72-0.56-2.52-0.56-1.37 0-2.21 0.67-2.21 1.61 0 1.04 1.15 1.39 2.54 1.73 1.46 0.37 2.7 0.8 2.7 2.1z"/>
				<path id="&lt;Compound Path&gt;" class="s0" d="m278.46 213.86h-0.4v-7.77h0.4z"/>
				<path id="&lt;Compound Path&gt;" fill-rule="evenodd" class="s0" d="m296.04 209.98c0 2.16-1.81 3.93-4.07 3.93-2.26 0-4.09-1.77-4.09-3.93 0-2.16 1.83-3.92 4.09-3.92 2.26 0 4.07 1.76 4.07 3.92zm-0.41 0c0-1.94-1.64-3.53-3.66-3.53-2.02 0-3.67 1.59-3.67 3.53 0 1.94 1.65 3.52 3.67 3.52 2.02 0 3.66-1.58 3.66-3.52z"/>
				<path id="&lt;Compound Path&gt;" class="s0" d="m311.83 206.09v7.77h-0.26l-5.7-6.99v6.99h-0.41v-7.77h0.27l5.69 6.99v-6.99z"/>
				<path id="&lt;Compound Path&gt;" fill-rule="evenodd" class="s0" d="m326.73 211.61h-4.44l-0.99 2.25h-0.44l3.5-7.77h0.31l3.5 7.77h-0.43zm-4.29-0.35h4.14l-2.08-4.68z"/>
				<path id="&lt;Compound Path&gt;" class="s0" d="m342.19 213.49v0.37h-4.99v-7.77h0.41v7.4z"/>
			</g>
			<g id="&lt;Group&gt;">
				<path id="&lt;Path&gt;" class="s0" d="m215.17 75.24c-6.02 10.23-19.2 13.65-29.43 7.63-10.23-6.03-13.65-19.2-7.63-29.43 6.03-10.24 19.2-13.65 29.43-7.63 10.24 6.02 13.65 19.2 7.63 29.43z"/>
				<path id="&lt;Compound Path&gt;" class="s0" d="m229 86.97l19.51 16.52c-12.13 14.42-30.41 23.56-51.15 23.56-36.04 0-65.4-28.3-65.4-63.29 0-34.98 29.36-63.46 65.4-63.46 20.74 0 39.02 9.32 51.15 23.73l-19.51 16.53c-7.03-10.02-18.63-16.35-31.64-16.35-21.63 0-39.38 15.82-39.38 39.55 0 23.38 17.75 39.56 39.38 39.56 13.01 0 24.61-6.33 31.64-16.35z"/>
			</g>
		</g>
	</g>
</svg>