<svg version="1.2" xmlns="http://www.w3.org/2000/svg" viewBox="0 0 518 104" width="518" height="104">
	<style>
		.s0 { fill: #fefefe } 
	</style>
	<g id="Layer 1">
		<g id="&lt;Group&gt;">
			<g id="&lt;Group&gt;">
				<g id="&lt;Group&gt;">
					<path id="&lt;Compound Path&gt;" class="s0" d="m142.77 61.42l7.93 6.72c-4.93 5.86-12.36 9.58-20.8 9.58-14.65 0-26.58-11.51-26.58-25.73 0-14.22 11.93-25.8 26.58-25.8 8.44 0 15.87 3.79 20.8 9.65l-7.93 6.72c-2.86-4.08-7.58-6.65-12.87-6.65-8.79 0-16.01 6.43-16.01 16.08 0 9.5 7.22 16.08 16.01 16.08 5.29 0 10.01-2.57 12.87-6.65z"/>
					<path id="&lt;Compound Path&gt;" fill-rule="evenodd" class="s0" d="m204.72 51.99c0 14.22-11.94 25.73-26.8 25.73-14.8 0-26.8-11.51-26.8-25.73 0-14.22 12-25.73 26.8-25.73 14.86 0 26.8 11.51 26.8 25.73zm-10.44 0c0-8.86-7.36-16.15-16.36-16.15-9.01 0-16.3 7.29-16.3 16.15 0 8.93 7.29 16.15 16.3 16.15 9 0 16.36-7.22 16.36-16.15z"/>
					<path id="&lt;Compound Path&gt;" class="s0" d="m261.53 26.76v50.39h-10.29v-27.88l-15.58 21.87-15.65-21.87v27.88h-10.22v-50.39h5.01l20.86 28.87 20.87-28.87z"/>
					<path id="&lt;Compound Path&gt;" class="s0" d="m356.65 56.92c0 11.58-7.72 20.8-22.37 20.8-14.58 0-22.23-9.15-22.23-20.8v-30.16h10.01v27.52c0 9.5 4.21 14 12.22 14 8.14 0 12.36-4.57 12.36-14v-27.52h10.01z"/>
					<path id="&lt;Compound Path&gt;" class="s0" d="m416.03 77.15h-4.22l-14.29-33.09-14.22 33.09h-4.22l-19.87-50.39h11.08l11.36 30.59 13.8-30.59h4.21l13.72 30.59 11.37-30.59h11.08z"/>
					<path id="&lt;Compound Path&gt;" class="s0" d="m515.5 26.76l-19.37 33.3v17.09h-10.29v-17.09l-19.3-33.3h11.65l12.87 22.23 12.72-22.23z"/>
					<path id="&lt;Path&gt;" class="s0" d="m289.11 26.76h-20.72v50.39h10.22v-12.94h0.02v-8.5h-0.02v-20.09h8.86c7.93 0 10.65 4.86 10.65 10.08 0 5.93-3.86 10.01-12.01 10.01h-0.78v8.5h1.78c12.8 0 21.73-5.5 21.73-19.3 0-9.43-5-18.15-19.73-18.15z"/>
					<path id="&lt;Path&gt;" class="s0" d="m453.97 26.76h-5.07l-24.02 50.39h10.8l4.5-10.22 3.64-8.51 7.58-16.65 7.65 16.65 3.64 8.51 4.57 10.22h10.79z"/>
				</g>
				<path id="&lt;Path&gt;" class="s0" d="m517.53 71.19c0 3.97-3.22 7.2-7.2 7.2-3.97 0-7.19-3.23-7.19-7.2 0-3.97 3.22-7.2 7.19-7.2 3.98 0 7.2 3.23 7.2 7.2z"/>
			</g>
			<g id="&lt;Group&gt;">
				<path id="&lt;Compound Path&gt;" class="s0" d="m145.35 89.89v4.32h4.56v0.41h-4.56v3.31h-0.45v-8.46h5.67v0.42z"/>
				<path id="&lt;Compound Path&gt;" fill-rule="evenodd" class="s0" d="m168.82 93.71c0 2.35-1.98 4.27-4.44 4.27-2.46 0-4.46-1.92-4.46-4.27 0-2.36 2-4.28 4.46-4.28 2.46 0 4.44 1.92 4.44 4.28zm-0.46 0c0-2.12-1.77-3.85-3.98-3.85-2.2 0-4 1.73-4 3.85 0 2.11 1.8 3.83 4 3.83 2.21 0 3.98-1.72 3.98-3.83z"/>
				<path id="&lt;Compound Path&gt;" fill-rule="evenodd" class="s0" d="m182.77 94.98q-0.37 0.04-0.75 0.04h-2.5v2.91h-0.45v-8.46h3.26c2.18 0 2.94 1.29 2.94 2.7 0 1.55-0.79 2.41-2.04 2.71l2.27 3.05h-0.55zm-3.26-0.37h2.49c1.66 0 2.8-0.71 2.8-2.42 0-1.21-0.65-2.3-2.5-2.3h-2.79z"/>
				<path id="&lt;Compound Path&gt;" class="s0" d="m203.71 89.47v8.46h-0.44v-7.43l-3.65 6-3.66-6v7.43h-0.45v-8.46h0.3l3.81 6.22 3.81-6.22z"/>
				<path id="&lt;Compound Path&gt;" fill-rule="evenodd" class="s0" d="m219.96 95.48h-4.84l-1.08 2.45h-0.48l3.82-8.46h0.33l3.81 8.46h-0.47zm-4.67-0.38h4.52l-2.27-5.09z"/>
				<path id="&lt;Compound Path&gt;" class="s0" d="m234.56 97.97c-2.32-0.12-4.18-1.98-4.18-4.26 0-2.36 2-4.29 4.43-4.29 1.4 0 2.63 0.64 3.45 1.61l-0.35 0.3c-0.72-0.88-1.84-1.47-3.1-1.47-2.18 0-3.96 1.72-3.96 3.85 0 2.12 1.78 3.83 3.96 3.83 1.26 0 2.38-0.58 3.1-1.46l0.35 0.3c-0.81 0.96-2.02 1.58-3.39 1.6l-0.31 0.65c0.41 0 0.72 0.25 0.72 0.66 0 0.4-0.3 0.88-1.08 0.88-0.48 0-0.72-0.11-0.76-0.11l0.08-0.27c0.14 0.05 0.43 0.09 0.62 0.09 0.55 0 0.77-0.31 0.77-0.6 0-0.35-0.43-0.46-0.88-0.46z"/>
				<path id="&lt;Compound Path&gt;" fill-rule="evenodd" class="s0" d="m253.93 95.48h-4.84l-1.08 2.45h-0.48l3.82-8.46h0.33l3.81 8.46h-0.47zm-4.67-0.38h4.52l-2.27-5.09zm0.05-6.35c0.11-0.83 0.56-1.29 1.27-1.29 0.72 0 1.34 0.58 1.98 0.58 0.37 0 0.74-0.3 0.85-0.94l0.33 0.05c-0.14 0.88-0.63 1.27-1.16 1.27-0.71 0-1.39-0.57-1.98-0.57q-0.79 0.01-0.97 0.94z"/>
				<path id="&lt;Compound Path&gt;" fill-rule="evenodd" class="s0" d="m273.25 93.71c0 2.35-1.98 4.27-4.44 4.27-2.46 0-4.46-1.92-4.46-4.27 0-2.36 2-4.28 4.46-4.28 2.46 0 4.44 1.92 4.44 4.28zm-0.46 0c0-2.12-1.77-3.85-3.98-3.85-2.2 0-4 1.73-4 3.85 0 2.11 1.8 3.83 4 3.83 2.21 0 3.98-1.72 3.98-3.83z"/>
				<path id="&lt;Compound Path&gt;" fill-rule="evenodd" class="s0" d="m299.01 89.47c2.18 0 2.94 1.29 2.94 2.7 0 2.03-1.35 2.85-3.24 2.85h-2.49v2.91h-0.44v-8.46zm-0.33 5.14c1.66 0 2.8-0.71 2.8-2.43 0-1.2-0.65-2.29-2.51-2.29h-2.75v4.72z"/>
				<path id="&lt;Compound Path&gt;" fill-rule="evenodd" class="s0" d="m315.73 94.98q-0.37 0.04-0.76 0.04h-2.49v2.91h-0.45v-8.46h3.26c2.18 0 2.94 1.29 2.94 2.7 0 1.55-0.79 2.41-2.04 2.71l2.27 3.05h-0.56zm-3.25-0.37h2.49c1.65 0 2.79-0.71 2.79-2.42 0-1.21-0.64-2.3-2.49-2.3h-2.79z"/>
				<path id="&lt;Compound Path&gt;" fill-rule="evenodd" class="s0" d="m336.92 93.71c0 2.35-1.98 4.27-4.44 4.27-2.46 0-4.45-1.92-4.45-4.27 0-2.36 1.99-4.28 4.45-4.28 2.46 0 4.44 1.92 4.44 4.28zm-0.45 0c0-2.12-1.78-3.85-3.99-3.85-2.2 0-4 1.73-4 3.85 0 2.11 1.8 3.83 4 3.83 2.21 0 3.99-1.72 3.99-3.83z"/>
				<path id="&lt;Compound Path&gt;" class="s0" d="m347.62 89.89v4.32h4.57v0.41h-4.57v3.31h-0.44v-8.46h5.67v0.42z"/>
				<path id="&lt;Compound Path&gt;" class="s0" d="m363.46 97.93h-0.44v-8.46h0.44z"/>
				<path id="&lt;Compound Path&gt;" class="s0" d="m379.95 95.76c0 1.43-1.22 2.26-3.02 2.26-1.33 0-1.87-0.1-3.21-0.77l0.18-0.37c1.27 0.62 1.78 0.72 3.03 0.72 1.54 0 2.56-0.68 2.56-1.83 0-1.14-1.19-1.51-2.59-1.86-1.68-0.41-3.12-0.86-3.12-2.3 0-1.29 1.09-2.19 2.87-2.19 0.96 0 2.2 0.25 2.94 0.65l-0.21 0.38c-0.69-0.38-1.87-0.61-2.73-0.61-1.51 0-2.42 0.73-2.42 1.75 0 1.13 1.26 1.52 2.77 1.89 1.59 0.4 2.95 0.86 2.95 2.28z"/>
				<path id="&lt;Compound Path&gt;" class="s0" d="m395.84 95.76c0 1.43-1.21 2.26-3.01 2.26-1.33 0-1.87-0.1-3.22-0.77l0.18-0.37c1.28 0.62 1.79 0.72 3.04 0.72 1.54 0 2.56-0.68 2.56-1.83 0-1.14-1.19-1.51-2.59-1.86-1.69-0.41-3.13-0.86-3.13-2.3 0-1.29 1.1-2.19 2.87-2.19 0.96 0 2.21 0.25 2.95 0.65l-0.21 0.38c-0.7-0.38-1.87-0.61-2.74-0.61-1.5 0-2.41 0.73-2.41 1.75 0 1.13 1.26 1.52 2.77 1.89 1.59 0.4 2.94 0.86 2.94 2.28z"/>
				<path id="&lt;Compound Path&gt;" class="s0" d="m406.53 97.93h-0.44v-8.46h0.44z"/>
				<path id="&lt;Compound Path&gt;" fill-rule="evenodd" class="s0" d="m425.68 93.71c0 2.35-1.98 4.27-4.44 4.27-2.46 0-4.45-1.92-4.45-4.27 0-2.36 1.99-4.28 4.45-4.28 2.46 0 4.44 1.92 4.44 4.28zm-0.45 0c0-2.12-1.78-3.85-3.99-3.85-2.2 0-4 1.73-4 3.85 0 2.11 1.8 3.83 4 3.83 2.21 0 3.99-1.72 3.99-3.83z"/>
				<path id="&lt;Compound Path&gt;" class="s0" d="m442.88 89.47v8.46h-0.29l-6.21-7.61v7.61h-0.44v-8.46h0.3l6.19 7.61v-7.61z"/>
				<path id="&lt;Compound Path&gt;" fill-rule="evenodd" class="s0" d="m459.11 95.48h-4.84l-1.08 2.45h-0.48l3.82-8.46h0.34l3.8 8.46h-0.47zm-4.67-0.38h4.52l-2.27-5.09z"/>
				<path id="&lt;Compound Path&gt;" class="s0" d="m475.95 97.53v0.4h-5.43v-8.46h0.44v8.06z"/>
			</g>
			<g id="&lt;Group&gt;">
				<path id="&lt;Path&gt;" class="s0" d="m69.01 61.36c-4.92 8.37-15.7 11.16-24.07 6.24-8.37-4.93-11.17-15.71-6.24-24.08 4.93-8.37 15.71-11.16 24.08-6.24 8.37 4.93 11.16 15.71 6.23 24.08z"/>
				<path id="&lt;Compound Path&gt;" class="s0" d="m80.33 70.95l15.96 13.52c-9.92 11.79-24.88 19.27-41.85 19.27-29.48 0-53.5-23.15-53.5-51.77 0-28.62 24.02-51.92 53.5-51.92 16.97 0 31.93 7.62 41.85 19.42l-15.96 13.52c-5.75-8.2-15.25-13.38-25.89-13.38-17.69 0-32.21 12.94-32.21 32.36 0 19.12 14.52 32.36 32.21 32.36 10.64 0 20.14-5.18 25.89-13.38z"/>
			</g>
		</g>
	</g>
</svg>