<svg width="520" height="800" viewBox="0 0 520 800" fill="none" xmlns="http://www.w3.org/2000/svg">
  <defs>
    <linearGradient id="bg" x1="64" y1="40" x2="446" y2="746" gradientUnits="userSpaceOnUse">
      <stop stop-color="#FFF4EA"/>
      <stop offset="1" stop-color="#FFD7B0"/>
    </linearGradient>
    <linearGradient id="panel" x1="116" y1="178" x2="402" y2="620" gradientUnits="userSpaceOnUse">
      <stop stop-color="#3A1F10"/>
      <stop offset="1" stop-color="#120B06"/>
    </linearGradient>
    <linearGradient id="tool" x1="124" y1="268" x2="398" y2="560" gradientUnits="userSpaceOnUse">
      <stop stop-color="#FFB877"/>
      <stop offset="1" stop-color="#F27800"/>
    </linearGradient>
  </defs>

  <rect width="520" height="800" rx="28" fill="url(#bg)"/>
  <rect x="34" y="36" width="452" height="728" rx="28" fill="#FFE9D1"/>

  <circle cx="122" cy="126" r="54" fill="#FFCFA0"/>
  <circle cx="402" cy="146" r="42" fill="#FFDDBA"/>
  <circle cx="386" cy="636" r="64" fill="#FFC488"/>

  <rect x="88" y="162" width="344" height="496" rx="28" fill="url(#panel)"/>
  <rect x="108" y="182" width="304" height="456" rx="22" fill="#201108"/>

  <rect x="126" y="224" width="268" height="336" rx="18" fill="#2A160A"/>
  <g opacity="0.95">
    <path d="M152 510L246 274L294 274L198 510H152Z" fill="url(#tool)"/>
    <path d="M220 510L314 274L362 274L266 510H220Z" fill="#FF9B3A"/>
    <rect x="156" y="330" width="196" height="22" rx="11" fill="#FFD2A3" opacity="0.32"/>
    <rect x="142" y="368" width="224" height="18" rx="9" fill="#FFD2A3" opacity="0.24"/>
  </g>

  <rect x="126" y="580" width="268" height="40" rx="12" fill="#382113"/>
  <text x="260" y="607" text-anchor="middle" fill="#FFC990" font-size="26" font-family="Segoe UI, Arial, sans-serif" font-weight="700">ILLUSTRATOR 2026</text>
</svg>
