<svg width="520" height="800" viewBox="0 0 520 800" fill="none" xmlns="http://www.w3.org/2000/svg">
  <defs>
    <linearGradient id="pptBg" x1="62" y1="42" x2="442" y2="742" gradientUnits="userSpaceOnUse">
      <stop stop-color="#FFF7F2"/>
      <stop offset="1" stop-color="#FFE0CF"/>
    </linearGradient>
    <linearGradient id="pptPanel" x1="122" y1="214" x2="398" y2="486" gradientUnits="userSpaceOnUse">
      <stop stop-color="#F07F33"/>
      <stop offset="1" stop-color="#B94A11"/>
    </linearGradient>
    <linearGradient id="pptDesk" x1="150" y1="548" x2="370" y2="622" gradientUnits="userSpaceOnUse">
      <stop stop-color="#445064"/>
      <stop offset="1" stop-color="#252E3A"/>
    </linearGradient>
  </defs>
  <rect width="520" height="800" rx="28" fill="url(#pptBg)"/>
  <circle cx="98" cy="118" r="24" fill="#FFD6BF" opacity="0.85"/>
  <circle cx="424" cy="100" r="18" fill="#FFF0E6" opacity="0.92"/>
  <rect x="112" y="196" width="296" height="280" rx="34" fill="url(#pptPanel)"/>
  <rect x="140" y="224" width="240" height="200" rx="24" fill="#FFF8F3" opacity="0.96"/>
  <circle cx="260" cy="330" r="62" fill="#F07F33" opacity="0.2"/>
  <path d="M260 268C294 268 322 296 322 330H260V268Z" fill="#F07F33"/>
  <path d="M260 330H322C322 364 294 392 260 392V330Z" fill="#D96520"/>
  <path d="M260 330V392C226 392 198 364 198 330H260Z" fill="#FDB17D"/>
  <rect x="176" y="438" width="168" height="18" rx="9" fill="#FFE1D1"/>
  <rect x="106" y="252" width="56" height="168" fill="#C95415"/>
  <path d="M136 300H148C163 300 172 309 172 322C172 335 163 344 148 344H136V300Z" stroke="#FFFFFF" stroke-width="10" stroke-linecap="round" stroke-linejoin="round"/>
</svg>