<svg width="520" height="800" viewBox="0 0 520 800" fill="none" xmlns="http://www.w3.org/2000/svg">
  <defs>
    <linearGradient id="w11bg" x1="60" y1="40" x2="444" y2="744" gradientUnits="userSpaceOnUse">
      <stop stop-color="#F2F8FF"/>
      <stop offset="1" stop-color="#D7E8FF"/>
    </linearGradient>
    <linearGradient id="w11glass" x1="128" y1="188" x2="394" y2="456" gradientUnits="userSpaceOnUse">
      <stop stop-color="#7DC2FF"/>
      <stop offset="1" stop-color="#2C7DFF"/>
    </linearGradient>
    <linearGradient id="w11task" x1="154" y1="512" x2="366" y2="570" gradientUnits="userSpaceOnUse">
      <stop stop-color="#3F4B60"/>
      <stop offset="1" stop-color="#232A36"/>
    </linearGradient>
  </defs>
  <rect width="520" height="800" rx="28" fill="url(#w11bg)"/>
  <circle cx="98" cy="112" r="24" fill="#C6DFFF" opacity="0.8"/>
  <circle cx="420" cy="98" r="18" fill="#E8F2FF" opacity="0.92"/>
  <rect x="112" y="184" width="296" height="292" rx="38" fill="url(#w11glass)"/>
  <rect x="138" y="212" width="244" height="208" rx="28" fill="#F6FBFF" opacity="0.2"/>
  <g opacity="0.95">
    <path d="M206 244L256 232V314L206 322V244Z" fill="#FFFFFF"/>
    <path d="M264 230L314 222V306L264 312V230Z" fill="#FFFFFF"/>
    <path d="M206 332L256 326V408L206 418V332Z" fill="#FFFFFF"/>
    <path d="M264 324L314 320V404L264 410V324Z" fill="#FFFFFF"/>
  </g>
  <rect x="154" y="500" width="212" height="52" rx="26" fill="url(#w11task)" opacity="0.92"/>
  <circle cx="210" cy="526" r="9" fill="#9DC6FF"/>
  <circle cx="240" cy="526" r="9" fill="#FFFFFF"/>
  <circle cx="270" cy="526" r="9" fill="#9DC6FF"/>
  <circle cx="300" cy="526" r="9" fill="#9DC6FF"/>
  <path d="M118 612C148 574 192 552 244 552H276C330 552 374 574 404 612" stroke="#FFFFFF" stroke-opacity="0.35" stroke-width="18" stroke-linecap="round"/>
  <path d="M142 650C168 620 202 604 244 604H276C318 604 352 620 378 650" stroke="#7FAEEA" stroke-opacity="0.45" stroke-width="14" stroke-linecap="round"/>
</svg>
