<svg width="520" height="800" viewBox="0 0 520 800" fill="none" xmlns="http://www.w3.org/2000/svg">
  <defs>
    <linearGradient id="w11kidsbg" x1="60" y1="40" x2="444" y2="744" gradientUnits="userSpaceOnUse">
      <stop stop-color="#F7FBFF"/>
      <stop offset="1" stop-color="#DDF2FF"/>
    </linearGradient>
    <linearGradient id="w11kidspanel" x1="110" y1="178" x2="412" y2="494" gradientUnits="userSpaceOnUse">
      <stop stop-color="#8FD8FF"/>
      <stop offset="1" stop-color="#4A8FFF"/>
    </linearGradient>
  </defs>
  <rect width="520" height="800" rx="28" fill="url(#w11kidsbg)"/>
  <circle cx="92" cy="104" r="26" fill="#FFE48D"/>
  <circle cx="420" cy="96" r="18" fill="#FFC0D8"/>
  <circle cx="380" cy="154" r="12" fill="#A6E7A6"/>
  <path d="M76 180C92 160 122 160 138 180L148 192C156 202 170 206 182 202L196 198C220 190 244 214 238 238L234 252C231 264 238 276 250 279L264 282C288 288 292 322 272 334L258 342C248 348 244 362 252 372L260 384C274 406 248 430 224 420L208 414C196 410 182 416 178 428L174 444C168 468 136 474 122 454L112 440C104 430 90 428 78 436L64 446C44 460 16 440 22 416L26 400C29 388 22 376 10 372L0 368V240C6 238 12 236 18 232L32 224C42 218 46 204 40 194L34 184C30 178 30 170 34 164C46 150 64 150 76 180Z" fill="#FFF3BF" opacity="0.9"/>
  <rect x="92" y="186" width="336" height="296" rx="38" fill="url(#w11kidspanel)"/>
  <rect x="124" y="216" width="272" height="218" rx="30" fill="#FFFFFF" opacity="0.18"/>
  <g opacity="0.96">
    <path d="M194 244L252 232V326L194 336V244Z" fill="#FFFFFF"/>
    <path d="M262 230L320 220V316L262 322V230Z" fill="#FFFFFF"/>
    <path d="M194 346L252 340V434L194 446V346Z" fill="#FFFFFF"/>
    <path d="M262 338L320 334V430L262 438V338Z" fill="#FFFFFF"/>
  </g>
  <g>
    <rect x="126" y="504" width="72" height="72" rx="22" fill="#FFD964"/>
    <path d="M148 540H176" stroke="#2A3240" stroke-width="10" stroke-linecap="round"/>
    <path d="M162 526V554" stroke="#2A3240" stroke-width="10" stroke-linecap="round"/>
    <rect x="224" y="518" width="72" height="58" rx="20" fill="#88E28C"/>
    <circle cx="248" cy="547" r="9" fill="#FFFFFF"/>
    <circle cx="272" cy="547" r="9" fill="#FFFFFF"/>
    <rect x="322" y="504" width="72" height="72" rx="22" fill="#FF9AC0"/>
    <path d="M344 526L372 554" stroke="#FFFFFF" stroke-width="10" stroke-linecap="round"/>
    <path d="M372 526L344 554" stroke="#FFFFFF" stroke-width="10" stroke-linecap="round"/>
  </g>
  <path d="M150 644C178 610 210 594 260 594C310 594 342 610 370 644" stroke="#FFFFFF" stroke-opacity="0.35" stroke-width="18" stroke-linecap="round"/>
</svg>
